<mxfile host="Electron" agent="Mozilla/5.0 (Macintosh; Intel Mac OS X 10_15_7) AppleWebKit/537.36 (KHTML, like Gecko) draw.io/28.1.2 Chrome/138.0.7204.243 Electron/37.4.0 Safari/537.36" version="28.1.2">
  <diagram name="Data Security Mindmap" id="XvH63k-SZzY9JdtBzAjr">
    <mxGraphModel dx="2505" dy="2610" grid="1" gridSize="10" guides="1" tooltips="1" connect="1" arrows="1" fold="1" page="1" pageScale="1" pageWidth="850" pageHeight="1100" math="0" shadow="0">
      <root>
        <mxCell id="0" />
        <mxCell id="1" parent="0" />
        <mxCell id="HSBJBMxjEop3nC450B1T-1" value="Безопасность данных" style="ellipse;whiteSpace=wrap;html=1;fillColor=#dae8fc;strokeColor=#6c8ebf;fontStyle=1;fontSize=16;fontColor=#000000;" vertex="1" parent="1">
          <mxGeometry x="1200" y="370" width="200" height="160" as="geometry" />
        </mxCell>
        <mxCell id="HSBJBMxjEop3nC450B1T-3" style="endArrow=block;strokeColor=#000000;entryX=1;entryY=0.5;entryDx=0;entryDy=0;" edge="1" parent="1" source="HSBJBMxjEop3nC450B1T-1" target="HSBJBMxjEop3nC450B1T-64">
          <mxGeometry relative="1" as="geometry">
            <mxPoint x="1150" y="462.00000000000045" as="targetPoint" />
          </mxGeometry>
        </mxCell>
        <mxCell id="HSBJBMxjEop3nC450B1T-16" value="Утечка внутренней архитектуры даёт злоумышленнику вектор атаки. Потеря документации усложняет поддержку систем." style="whiteSpace=wrap;fillColor=#fff;fontColor=light-dark(#000000,#000000);" vertex="1" parent="1">
          <mxGeometry x="1780" y="30" width="280" height="80" as="geometry" />
        </mxCell>
        <mxCell id="HSBJBMxjEop3nC450B1T-19" style="endArrow=block;strokeColor=#000000;entryX=0;entryY=0.5;entryDx=0;entryDy=0;" edge="1" parent="1" source="HSBJBMxjEop3nC450B1T-1" target="HSBJBMxjEop3nC450B1T-47">
          <mxGeometry relative="1" as="geometry">
            <mxPoint x="1500" y="450" as="targetPoint" />
          </mxGeometry>
        </mxCell>
        <mxCell id="HSBJBMxjEop3nC450B1T-27" style="endArrow=block;strokeColor=#000000;entryX=0.5;entryY=0;entryDx=0;entryDy=0;" edge="1" parent="1" source="HSBJBMxjEop3nC450B1T-1" target="HSBJBMxjEop3nC450B1T-38">
          <mxGeometry relative="1" as="geometry">
            <mxPoint x="1311.7647058823532" y="610" as="targetPoint" />
          </mxGeometry>
        </mxCell>
        <mxCell id="HSBJBMxjEop3nC450B1T-29" style="endArrow=classic;strokeColor=#000000;entryX=0.5;entryY=0;entryDx=0;entryDy=0;exitX=0.5;exitY=1;exitDx=0;exitDy=0;endFill=1;" edge="1" parent="1" source="HSBJBMxjEop3nC450B1T-38" target="HSBJBMxjEop3nC450B1T-36">
          <mxGeometry relative="1" as="geometry">
            <mxPoint x="1305" y="670" as="sourcePoint" />
            <mxPoint x="1262.6923076923076" y="740" as="targetPoint" />
          </mxGeometry>
        </mxCell>
        <mxCell id="HSBJBMxjEop3nC450B1T-31" style="endArrow=classic;strokeColor=#000000;exitX=0.5;exitY=1;exitDx=0;exitDy=0;entryX=0.5;entryY=0;entryDx=0;entryDy=0;endFill=1;" edge="1" parent="1" source="HSBJBMxjEop3nC450B1T-36" target="HSBJBMxjEop3nC450B1T-39">
          <mxGeometry relative="1" as="geometry">
            <mxPoint x="1350" y="831.25" as="sourcePoint" />
            <mxPoint x="1281.4285714285716" y="840" as="targetPoint" />
          </mxGeometry>
        </mxCell>
        <mxCell id="HSBJBMxjEop3nC450B1T-32" value="Компрометация ключей и токенов даёт доступ ко всей инфраструктуре" style="whiteSpace=wrap;fillColor=#fff;fontColor=#000000;" vertex="1" parent="1">
          <mxGeometry x="1030" y="890" width="225" height="70" as="geometry" />
        </mxCell>
        <mxCell id="HSBJBMxjEop3nC450B1T-33" style="endArrow=classic;strokeColor=#000000;exitX=0.5;exitY=1;exitDx=0;exitDy=0;endFill=1;" edge="1" parent="1" source="HSBJBMxjEop3nC450B1T-39" target="HSBJBMxjEop3nC450B1T-32">
          <mxGeometry relative="1" as="geometry">
            <mxPoint x="1233.3333333333335" y="1000" as="sourcePoint" />
          </mxGeometry>
        </mxCell>
        <mxCell id="HSBJBMxjEop3nC450B1T-35" style="edgeStyle=orthogonalEdgeStyle;rounded=0;orthogonalLoop=1;jettySize=auto;html=1;exitX=0.5;exitY=1;exitDx=0;exitDy=0;" edge="1" parent="1" source="HSBJBMxjEop3nC450B1T-32" target="HSBJBMxjEop3nC450B1T-32">
          <mxGeometry relative="1" as="geometry" />
        </mxCell>
        <mxCell id="HSBJBMxjEop3nC450B1T-36" value="&lt;span style=&quot;font-family: Helvetica; font-size: 12px; font-style: normal; font-variant-ligatures: normal; font-variant-caps: normal; font-weight: 400; letter-spacing: normal; orphans: 2; text-align: center; text-indent: 0px; text-transform: none; widows: 2; word-spacing: 0px; -webkit-text-stroke-width: 0px; white-space: normal; text-decoration-thickness: initial; text-decoration-style: initial; text-decoration-color: initial; float: none; display: inline !important;&quot;&gt;- Учётные записи и ключи&lt;br&gt;&amp;nbsp;- Сертификаты ЭП, токены&lt;br&gt;&lt;/span&gt;" style="ellipse;whiteSpace=wrap;html=1;fontColor=#000000;fillColor=#FFFFFF;" vertex="1" parent="1">
          <mxGeometry x="1195" y="670" width="210" height="70" as="geometry" />
        </mxCell>
        <mxCell id="HSBJBMxjEop3nC450B1T-38" value="&lt;span style=&quot;font-weight: 700;&quot;&gt;Секретные данные&lt;/span&gt;" style="ellipse;whiteSpace=wrap;html=1;fontColor=#000000;fillColor=#FFFFFF;" vertex="1" parent="1">
          <mxGeometry x="1230" y="560" width="140" height="85" as="geometry" />
        </mxCell>
        <mxCell id="HSBJBMxjEop3nC450B1T-39" value="&lt;div&gt;&lt;div&gt;&lt;font style=&quot;color: rgb(0, 0, 0);&quot;&gt;Утечка данных&lt;/font&gt;&lt;/div&gt;&lt;div&gt;&lt;font style=&quot;color: rgb(0, 0, 0);&quot;&gt;(&lt;span style=&quot;background-color: transparent;&quot;&gt;критический)&lt;/span&gt;&lt;/font&gt;&lt;/div&gt;&lt;/div&gt;" style="ellipse;whiteSpace=wrap;html=1;fontColor=#000000;fillColor=#FFFFFF;strokeColor=#000000;" vertex="1" parent="1">
          <mxGeometry x="1145" y="780" width="110" height="70" as="geometry" />
        </mxCell>
        <mxCell id="HSBJBMxjEop3nC450B1T-44" value="" style="rounded=0;orthogonalLoop=1;jettySize=auto;html=1;" edge="1" parent="1" source="HSBJBMxjEop3nC450B1T-41" target="HSBJBMxjEop3nC450B1T-42">
          <mxGeometry relative="1" as="geometry" />
        </mxCell>
        <mxCell id="HSBJBMxjEop3nC450B1T-41" value="&lt;div&gt;&lt;div&gt;&lt;font style=&quot;color: rgb(0, 0, 0);&quot;&gt;Потеря данных&lt;/font&gt;&lt;/div&gt;&lt;div&gt;&lt;font style=&quot;color: rgb(0, 0, 0);&quot;&gt;(&lt;span style=&quot;background-color: transparent;&quot;&gt;критический)&lt;/span&gt;&lt;/font&gt;&lt;/div&gt;&lt;/div&gt;" style="ellipse;whiteSpace=wrap;html=1;fontColor=#000000;fillColor=#FFFFFF;strokeColor=#000000;" vertex="1" parent="1">
          <mxGeometry x="1335" y="780" width="120" height="70" as="geometry" />
        </mxCell>
        <mxCell id="HSBJBMxjEop3nC450B1T-42" value="Потеря ключей или токенов делает невозможным восстановление доступа, подписание и аутентификацию" style="whiteSpace=wrap;fillColor=#fff;fontColor=#000000;" vertex="1" parent="1">
          <mxGeometry x="1330" y="890" width="225" height="70" as="geometry" />
        </mxCell>
        <mxCell id="HSBJBMxjEop3nC450B1T-46" style="endArrow=classic;strokeColor=#000000;exitX=0.5;exitY=1;exitDx=0;exitDy=0;entryX=0.5;entryY=0;entryDx=0;entryDy=0;endFill=1;" edge="1" parent="1" source="HSBJBMxjEop3nC450B1T-36" target="HSBJBMxjEop3nC450B1T-41">
          <mxGeometry relative="1" as="geometry">
            <mxPoint x="1343" y="830" as="sourcePoint" />
            <mxPoint x="1290" y="870" as="targetPoint" />
          </mxGeometry>
        </mxCell>
        <mxCell id="HSBJBMxjEop3nC450B1T-49" value="" style="rounded=0;orthogonalLoop=1;jettySize=auto;html=1;entryX=0;entryY=0.5;entryDx=0;entryDy=0;" edge="1" parent="1" source="HSBJBMxjEop3nC450B1T-47" target="HSBJBMxjEop3nC450B1T-48">
          <mxGeometry relative="1" as="geometry">
            <mxPoint x="1600" y="420" as="targetPoint" />
          </mxGeometry>
        </mxCell>
        <mxCell id="HSBJBMxjEop3nC450B1T-47" value="&lt;span style=&quot;font-weight: 700;&quot;&gt;Конфиденциальные данные&lt;/span&gt;" style="ellipse;whiteSpace=wrap;html=1;fontColor=#000000;fillColor=#FFFFFF;" vertex="1" parent="1">
          <mxGeometry x="1450" y="397.5" width="140" height="105" as="geometry" />
        </mxCell>
        <mxCell id="HSBJBMxjEop3nC450B1T-48" value="&lt;span style=&quot;font-family: Helvetica; font-size: 12px; font-style: normal; font-variant-ligatures: normal; font-variant-caps: normal; font-weight: 400; letter-spacing: normal; orphans: 2; text-align: center; text-indent: 0px; text-transform: none; widows: 2; word-spacing: 0px; -webkit-text-stroke-width: 0px; white-space: normal; text-decoration-thickness: initial; text-decoration-style: initial; text-decoration-color: initial; float: none; display: inline !important;&quot;&gt;&amp;nbsp;- Перс. данные&lt;/span&gt;&lt;div&gt;&lt;span style=&quot;font-family: Helvetica; font-size: 12px; font-style: normal; font-variant-ligatures: normal; font-variant-caps: normal; font-weight: 400; letter-spacing: normal; orphans: 2; text-align: center; text-indent: 0px; text-transform: none; widows: 2; word-spacing: 0px; -webkit-text-stroke-width: 0px; white-space: normal; text-decoration-thickness: initial; text-decoration-style: initial; text-decoration-color: initial; float: none; display: inline !important;&quot;&gt;&amp;nbsp;клиентов и собственников&lt;/span&gt;&lt;div&gt;&lt;span style=&quot;font-family: Helvetica; font-size: 12px; font-style: normal; font-variant-ligatures: normal; font-variant-caps: normal; font-weight: 400; letter-spacing: normal; orphans: 2; text-align: center; text-indent: 0px; text-transform: none; widows: 2; word-spacing: 0px; -webkit-text-stroke-width: 0px; white-space: normal; text-decoration-thickness: initial; text-decoration-style: initial; text-decoration-color: initial; float: none; display: inline !important;&quot;&gt;&amp;nbsp;- CRM и бухгалтерия&lt;/span&gt;&lt;/div&gt;&lt;div&gt;&lt;span style=&quot;font-family: Helvetica; font-size: 12px; font-style: normal; font-variant-ligatures: normal; font-variant-caps: normal; font-weight: 400; letter-spacing: normal; orphans: 2; text-align: center; text-indent: 0px; text-transform: none; widows: 2; word-spacing: 0px; -webkit-text-stroke-width: 0px; white-space: normal; text-decoration-thickness: initial; text-decoration-style: initial; text-decoration-color: initial; float: none; display: inline !important;&quot;&gt;- Резервные копии БД&lt;br style=&quot;padding: 0px; margin: 0px;&quot;&gt;- BI и аналитика&lt;/span&gt;&lt;/div&gt;&lt;/div&gt;" style="ellipse;whiteSpace=wrap;html=1;fontColor=#000000;fillColor=#FFFFFF;" vertex="1" parent="1">
          <mxGeometry x="1640" y="385" width="210" height="130" as="geometry" />
        </mxCell>
        <mxCell id="HSBJBMxjEop3nC450B1T-52" value="&lt;div&gt;&lt;div&gt;&lt;font style=&quot;color: rgb(0, 0, 0);&quot;&gt;Утечка данных&lt;/font&gt;&lt;/div&gt;&lt;div&gt;&lt;font style=&quot;color: rgb(0, 0, 0);&quot;&gt;(&lt;span style=&quot;background-color: transparent;&quot;&gt;критический)&lt;/span&gt;&lt;/font&gt;&lt;/div&gt;&lt;/div&gt;" style="ellipse;whiteSpace=wrap;html=1;fontColor=#000000;fillColor=#FFFFFF;strokeColor=#000000;" vertex="1" parent="1">
          <mxGeometry x="1915" y="370" width="110" height="70" as="geometry" />
        </mxCell>
        <mxCell id="HSBJBMxjEop3nC450B1T-53" value="" style="rounded=0;orthogonalLoop=1;jettySize=auto;html=1;entryX=0;entryY=0.5;entryDx=0;entryDy=0;exitX=1;exitY=0.5;exitDx=0;exitDy=0;" edge="1" parent="1" source="HSBJBMxjEop3nC450B1T-48" target="HSBJBMxjEop3nC450B1T-52">
          <mxGeometry relative="1" as="geometry">
            <mxPoint x="1610" y="630" as="sourcePoint" />
            <mxPoint x="1660" y="630" as="targetPoint" />
          </mxGeometry>
        </mxCell>
        <mxCell id="HSBJBMxjEop3nC450B1T-54" value="&lt;div&gt;&lt;div&gt;&lt;font style=&quot;color: rgb(0, 0, 0);&quot;&gt;Потеря данных&lt;/font&gt;&lt;/div&gt;&lt;div&gt;&lt;font style=&quot;color: rgb(0, 0, 0);&quot;&gt;(&lt;span style=&quot;background-color: transparent;&quot;&gt;критический)&lt;/span&gt;&lt;/font&gt;&lt;/div&gt;&lt;/div&gt;" style="ellipse;whiteSpace=wrap;html=1;fontColor=#000000;fillColor=#FFFFFF;strokeColor=#000000;" vertex="1" parent="1">
          <mxGeometry x="1910" y="470" width="120" height="70" as="geometry" />
        </mxCell>
        <mxCell id="HSBJBMxjEop3nC450B1T-55" value="" style="rounded=0;orthogonalLoop=1;jettySize=auto;html=1;exitX=1;exitY=0.5;exitDx=0;exitDy=0;entryX=0;entryY=0.5;entryDx=0;entryDy=0;" edge="1" parent="1" source="HSBJBMxjEop3nC450B1T-48" target="HSBJBMxjEop3nC450B1T-54">
          <mxGeometry relative="1" as="geometry">
            <mxPoint x="1870" y="585" as="sourcePoint" />
            <mxPoint x="1890" y="510" as="targetPoint" />
          </mxGeometry>
        </mxCell>
        <mxCell id="HSBJBMxjEop3nC450B1T-56" value="Раскрытие ПД или финансовых данных ведёт к штрафам, потере доверия и юридическим последствиям (152-ФЗ, GDPR)." style="whiteSpace=wrap;fillColor=#fff;fontColor=#000000;" vertex="1" parent="1">
          <mxGeometry x="2080" y="370" width="225" height="70" as="geometry" />
        </mxCell>
        <mxCell id="HSBJBMxjEop3nC450B1T-57" value="" style="rounded=0;orthogonalLoop=1;jettySize=auto;html=1;exitX=1;exitY=0.5;exitDx=0;exitDy=0;entryX=0;entryY=0.5;entryDx=0;entryDy=0;" edge="1" parent="1" source="HSBJBMxjEop3nC450B1T-52" target="HSBJBMxjEop3nC450B1T-56">
          <mxGeometry relative="1" as="geometry">
            <mxPoint x="1860" y="630" as="sourcePoint" />
            <mxPoint x="1920" y="685" as="targetPoint" />
          </mxGeometry>
        </mxCell>
        <mxCell id="HSBJBMxjEop3nC450B1T-58" value="Потеря резервных копий или записей о сделках может привести к невозможности доказать права собственности или расчёты." style="whiteSpace=wrap;fillColor=#fff;fontColor=#000000;" vertex="1" parent="1">
          <mxGeometry x="2080" y="470" width="225" height="70" as="geometry" />
        </mxCell>
        <mxCell id="HSBJBMxjEop3nC450B1T-59" value="" style="rounded=0;orthogonalLoop=1;jettySize=auto;html=1;exitX=1;exitY=0.5;exitDx=0;exitDy=0;entryX=0;entryY=0.5;entryDx=0;entryDy=0;" edge="1" parent="1" source="HSBJBMxjEop3nC450B1T-54" target="HSBJBMxjEop3nC450B1T-58">
          <mxGeometry relative="1" as="geometry">
            <mxPoint x="2040" y="640" as="sourcePoint" />
            <mxPoint x="2095" y="640" as="targetPoint" />
          </mxGeometry>
        </mxCell>
        <mxCell id="HSBJBMxjEop3nC450B1T-60" value="&lt;div&gt;Искажение &lt;span style=&quot;background-color: transparent;&quot;&gt;данных&lt;/span&gt;&lt;/div&gt;&lt;div&gt;&lt;font style=&quot;color: rgb(0, 0, 0);&quot;&gt;(&lt;span style=&quot;background-color: transparent;&quot;&gt;критический)&lt;br&gt;&lt;/span&gt;&lt;/font&gt;&lt;/div&gt;" style="ellipse;whiteSpace=wrap;html=1;fontColor=#000000;fillColor=#FFFFFF;strokeColor=#000000;" vertex="1" parent="1">
          <mxGeometry x="1677.5" y="570" width="135" height="70" as="geometry" />
        </mxCell>
        <mxCell id="HSBJBMxjEop3nC450B1T-61" value="Ошибки при синхронизации CRM и госорганов могут привести к неверным договорам, судебным спорам." style="whiteSpace=wrap;fillColor=#fff;fontColor=#000000;" vertex="1" parent="1">
          <mxGeometry x="1621.25" y="680" width="247.5" height="70" as="geometry" />
        </mxCell>
        <mxCell id="HSBJBMxjEop3nC450B1T-62" value="" style="rounded=0;orthogonalLoop=1;jettySize=auto;html=1;exitX=0.5;exitY=1;exitDx=0;exitDy=0;entryX=0.5;entryY=0;entryDx=0;entryDy=0;" edge="1" parent="1" source="HSBJBMxjEop3nC450B1T-48" target="HSBJBMxjEop3nC450B1T-60">
          <mxGeometry relative="1" as="geometry">
            <mxPoint x="1960" y="610" as="sourcePoint" />
            <mxPoint x="2020" y="665" as="targetPoint" />
          </mxGeometry>
        </mxCell>
        <mxCell id="HSBJBMxjEop3nC450B1T-63" value="" style="rounded=0;orthogonalLoop=1;jettySize=auto;html=1;exitX=0.5;exitY=1;exitDx=0;exitDy=0;entryX=0.5;entryY=0;entryDx=0;entryDy=0;" edge="1" parent="1" source="HSBJBMxjEop3nC450B1T-60" target="HSBJBMxjEop3nC450B1T-61">
          <mxGeometry relative="1" as="geometry">
            <mxPoint x="1910" y="640" as="sourcePoint" />
            <mxPoint x="1910" y="695" as="targetPoint" />
          </mxGeometry>
        </mxCell>
        <mxCell id="HSBJBMxjEop3nC450B1T-64" value="&lt;span style=&quot;font-weight: 700;&quot;&gt;Публичные данные&lt;/span&gt;" style="ellipse;whiteSpace=wrap;html=1;fontColor=#000000;fillColor=#FFFFFF;" vertex="1" parent="1">
          <mxGeometry x="1010" y="407.5" width="140" height="85" as="geometry" />
        </mxCell>
        <mxCell id="HSBJBMxjEop3nC450B1T-65" value="&lt;span style=&quot;font-family: Helvetica; font-size: 12px; font-style: normal; font-variant-ligatures: normal; font-variant-caps: normal; font-weight: 400; letter-spacing: normal; orphans: 2; text-align: center; text-indent: 0px; text-transform: none; widows: 2; word-spacing: 0px; -webkit-text-stroke-width: 0px; white-space: normal; text-decoration-thickness: initial; text-decoration-style: initial; text-decoration-color: initial; float: none; display: inline !important;&quot;&gt;- Витрина продаж&lt;br&gt;&amp;nbsp;- Рекламные материалы&lt;br&gt;&lt;/span&gt;&lt;div&gt;&lt;span style=&quot;font-family: Helvetica; font-size: 12px; font-style: normal; font-variant-ligatures: normal; font-variant-caps: normal; font-weight: 400; letter-spacing: normal; orphans: 2; text-align: center; text-indent: 0px; text-transform: none; widows: 2; word-spacing: 0px; -webkit-text-stroke-width: 0px; white-space: normal; text-decoration-thickness: initial; text-decoration-style: initial; text-decoration-color: initial; float: none; display: inline !important;&quot;&gt;-&amp;nbsp;&lt;/span&gt;&lt;span style=&quot;background-color: transparent; color: light-dark(rgb(0, 0, 0), rgb(237, 237, 237));&quot;&gt;Публичные страницы&lt;/span&gt;&lt;/div&gt;" style="ellipse;whiteSpace=wrap;html=1;fontColor=#000000;fillColor=#FFFFFF;" vertex="1" parent="1">
          <mxGeometry x="760" y="387.5" width="210" height="125" as="geometry" />
        </mxCell>
        <mxCell id="HSBJBMxjEop3nC450B1T-66" style="endArrow=block;strokeColor=#000000;entryX=1;entryY=0.5;entryDx=0;entryDy=0;exitX=0;exitY=0.5;exitDx=0;exitDy=0;" edge="1" parent="1" source="HSBJBMxjEop3nC450B1T-64" target="HSBJBMxjEop3nC450B1T-65">
          <mxGeometry relative="1" as="geometry">
            <mxPoint x="1200" y="530" as="sourcePoint" />
            <mxPoint x="1150" y="530" as="targetPoint" />
          </mxGeometry>
        </mxCell>
        <mxCell id="HSBJBMxjEop3nC450B1T-67" value="&lt;div&gt;&lt;div&gt;&lt;font style=&quot;color: rgb(0, 0, 0);&quot;&gt;Потеря данных&lt;/font&gt;&lt;/div&gt;&lt;div&gt;&lt;font style=&quot;color: rgb(0, 0, 0);&quot;&gt;(з&lt;span style=&quot;background-color: transparent;&quot;&gt;начительный&lt;/span&gt;&lt;span style=&quot;color: rgb(0, 0, 0); background-color: transparent;&quot;&gt;)&lt;/span&gt;&lt;/font&gt;&lt;/div&gt;&lt;/div&gt;" style="ellipse;whiteSpace=wrap;html=1;fontColor=#000000;fillColor=#FFFFFF;strokeColor=#000000;" vertex="1" parent="1">
          <mxGeometry x="610" y="300" width="120" height="70" as="geometry" />
        </mxCell>
        <mxCell id="HSBJBMxjEop3nC450B1T-68" style="endArrow=block;strokeColor=#000000;entryX=1;entryY=0.5;entryDx=0;entryDy=0;exitX=0;exitY=0;exitDx=0;exitDy=0;" edge="1" parent="1" source="HSBJBMxjEop3nC450B1T-65" target="HSBJBMxjEop3nC450B1T-67">
          <mxGeometry relative="1" as="geometry">
            <mxPoint x="940" y="600" as="sourcePoint" />
            <mxPoint x="900" y="600" as="targetPoint" />
          </mxGeometry>
        </mxCell>
        <mxCell id="HSBJBMxjEop3nC450B1T-69" value="Потеря контента или сбой витрины ведёт к недоступности сайта, падению доверия клиентов." style="whiteSpace=wrap;fillColor=#fff;fontColor=#000000;" vertex="1" parent="1">
          <mxGeometry x="330" y="300" width="225" height="70" as="geometry" />
        </mxCell>
        <mxCell id="HSBJBMxjEop3nC450B1T-70" style="endArrow=block;strokeColor=#000000;entryX=1;entryY=0.5;entryDx=0;entryDy=0;exitX=0;exitY=0.5;exitDx=0;exitDy=0;" edge="1" parent="1" source="HSBJBMxjEop3nC450B1T-67" target="HSBJBMxjEop3nC450B1T-69">
          <mxGeometry relative="1" as="geometry">
            <mxPoint x="761" y="475.5" as="sourcePoint" />
            <mxPoint x="680" y="432.5" as="targetPoint" />
          </mxGeometry>
        </mxCell>
        <mxCell id="HSBJBMxjEop3nC450B1T-71" value="&lt;div&gt;&lt;div&gt;Искажение данных&lt;/div&gt;&lt;/div&gt;&lt;div&gt;&lt;font style=&quot;color: rgb(0, 0, 0);&quot;&gt;(з&lt;span style=&quot;background-color: transparent;&quot;&gt;начительный&lt;/span&gt;&lt;span style=&quot;color: rgb(0, 0, 0); background-color: transparent;&quot;&gt;)&lt;/span&gt;&lt;/font&gt;&lt;/div&gt;" style="ellipse;whiteSpace=wrap;html=1;fontColor=#000000;fillColor=#FFFFFF;strokeColor=#000000;" vertex="1" parent="1">
          <mxGeometry x="610" y="415" width="120" height="70" as="geometry" />
        </mxCell>
        <mxCell id="HSBJBMxjEop3nC450B1T-72" value="Подмена цен, адресов, планировок создаёт репутационный и юридический ущерб." style="whiteSpace=wrap;fillColor=#fff;fontColor=#000000;" vertex="1" parent="1">
          <mxGeometry x="330" y="415" width="225" height="70" as="geometry" />
        </mxCell>
        <mxCell id="HSBJBMxjEop3nC450B1T-73" style="endArrow=block;strokeColor=#000000;entryX=1;entryY=0.5;entryDx=0;entryDy=0;exitX=0;exitY=0.5;exitDx=0;exitDy=0;" edge="1" parent="1" source="HSBJBMxjEop3nC450B1T-65" target="HSBJBMxjEop3nC450B1T-71">
          <mxGeometry relative="1" as="geometry">
            <mxPoint x="811" y="453" as="sourcePoint" />
            <mxPoint x="750" y="410" as="targetPoint" />
          </mxGeometry>
        </mxCell>
        <mxCell id="HSBJBMxjEop3nC450B1T-74" style="endArrow=block;strokeColor=#000000;entryX=1;entryY=0.5;entryDx=0;entryDy=0;exitX=0;exitY=0.5;exitDx=0;exitDy=0;" edge="1" parent="1" source="HSBJBMxjEop3nC450B1T-71" target="HSBJBMxjEop3nC450B1T-72">
          <mxGeometry relative="1" as="geometry">
            <mxPoint x="625" y="390" as="sourcePoint" />
            <mxPoint x="570" y="390" as="targetPoint" />
          </mxGeometry>
        </mxCell>
        <mxCell id="HSBJBMxjEop3nC450B1T-75" value="&lt;div&gt;&lt;div&gt;Некачественные данные&lt;/div&gt;&lt;/div&gt;&lt;div&gt;&lt;font style=&quot;color: rgb(0, 0, 0);&quot;&gt;(з&lt;span style=&quot;background-color: transparent;&quot;&gt;начительный&lt;/span&gt;&lt;span style=&quot;color: rgb(0, 0, 0); background-color: transparent;&quot;&gt;)&lt;/span&gt;&lt;/font&gt;&lt;/div&gt;" style="ellipse;whiteSpace=wrap;html=1;fontColor=#000000;fillColor=#FFFFFF;strokeColor=#000000;" vertex="1" parent="1">
          <mxGeometry x="610" y="520" width="120" height="70" as="geometry" />
        </mxCell>
        <mxCell id="HSBJBMxjEop3nC450B1T-76" value="Ошибки, устаревшие тексты и неверные объекты снижают продажи и вызывают жалобы." style="whiteSpace=wrap;fillColor=#fff;fontColor=#000000;" vertex="1" parent="1">
          <mxGeometry x="330" y="520" width="225" height="70" as="geometry" />
        </mxCell>
        <mxCell id="HSBJBMxjEop3nC450B1T-77" style="endArrow=block;strokeColor=#000000;entryX=1;entryY=0.5;entryDx=0;entryDy=0;exitX=0;exitY=1;exitDx=0;exitDy=0;" edge="1" parent="1" target="HSBJBMxjEop3nC450B1T-75" source="HSBJBMxjEop3nC450B1T-65">
          <mxGeometry relative="1" as="geometry">
            <mxPoint x="760" y="555" as="sourcePoint" />
            <mxPoint x="750" y="515" as="targetPoint" />
          </mxGeometry>
        </mxCell>
        <mxCell id="HSBJBMxjEop3nC450B1T-78" style="endArrow=block;strokeColor=#000000;entryX=1;entryY=0.5;entryDx=0;entryDy=0;exitX=0;exitY=0.5;exitDx=0;exitDy=0;" edge="1" parent="1" source="HSBJBMxjEop3nC450B1T-75" target="HSBJBMxjEop3nC450B1T-76">
          <mxGeometry relative="1" as="geometry">
            <mxPoint x="625" y="495" as="sourcePoint" />
            <mxPoint x="570" y="495" as="targetPoint" />
          </mxGeometry>
        </mxCell>
        <mxCell id="HSBJBMxjEop3nC450B1T-79" value="&lt;span style=&quot;font-weight: 700;&quot;&gt;Внутренние данные&lt;/span&gt;" style="ellipse;whiteSpace=wrap;html=1;fontColor=#000000;fillColor=#FFFFFF;" vertex="1" parent="1">
          <mxGeometry x="1230" y="230" width="140" height="105" as="geometry" />
        </mxCell>
        <mxCell id="HSBJBMxjEop3nC450B1T-80" style="endArrow=block;strokeColor=#000000;entryX=0.5;entryY=1;entryDx=0;entryDy=0;exitX=0.5;exitY=0;exitDx=0;exitDy=0;" edge="1" parent="1" source="HSBJBMxjEop3nC450B1T-1" target="HSBJBMxjEop3nC450B1T-79">
          <mxGeometry relative="1" as="geometry">
            <mxPoint x="1450" y="250" as="sourcePoint" />
            <mxPoint x="1500" y="250" as="targetPoint" />
          </mxGeometry>
        </mxCell>
        <mxCell id="HSBJBMxjEop3nC450B1T-81" value="&lt;span style=&quot;font-family: Helvetica; font-size: 12px; font-style: normal; font-variant-ligatures: normal; font-variant-caps: normal; font-weight: 400; letter-spacing: normal; orphans: 2; text-align: center; text-indent: 0px; text-transform: none; widows: 2; word-spacing: 0px; -webkit-text-stroke-width: 0px; white-space: normal; text-decoration-thickness: initial; text-decoration-style: initial; text-decoration-color: initial; float: none; display: inline !important;&quot;&gt;&amp;nbsp;-&lt;/span&gt;Документация&lt;div&gt;&lt;div&gt;&lt;span style=&quot;font-family: Helvetica; font-size: 12px; font-style: normal; font-variant-ligatures: normal; font-variant-caps: normal; font-weight: 400; letter-spacing: normal; orphans: 2; text-align: center; text-indent: 0px; text-transform: none; widows: 2; word-spacing: 0px; -webkit-text-stroke-width: 0px; white-space: normal; text-decoration-thickness: initial; text-decoration-style: initial; text-decoration-color: initial; float: none; display: inline !important;&quot;&gt;&amp;nbsp;-&amp;nbsp;&lt;/span&gt;&lt;span style=&quot;background-color: transparent; color: light-dark(rgb(0, 0, 0), rgb(237, 237, 237));&quot;&gt;Конфигурации DevOps&lt;/span&gt;&lt;/div&gt;&lt;div&gt;&lt;span style=&quot;font-family: Helvetica; font-size: 12px; font-style: normal; font-variant-ligatures: normal; font-variant-caps: normal; font-weight: 400; letter-spacing: normal; orphans: 2; text-align: center; text-indent: 0px; text-transform: none; widows: 2; word-spacing: 0px; -webkit-text-stroke-width: 0px; white-space: normal; text-decoration-thickness: initial; text-decoration-style: initial; text-decoration-color: initial; float: none; display: inline !important;&quot;&gt;-&amp;nbsp;&lt;/span&gt;&lt;span style=&quot;background-color: transparent; color: light-dark(rgb(0, 0, 0), rgb(237, 237, 237));&quot;&gt;Логи, схемы интеграций&lt;/span&gt;&lt;/div&gt;&lt;/div&gt;" style="ellipse;whiteSpace=wrap;html=1;fontColor=#000000;fillColor=#FFFFFF;" vertex="1" parent="1">
          <mxGeometry x="1195" y="60" width="210" height="130" as="geometry" />
        </mxCell>
        <mxCell id="HSBJBMxjEop3nC450B1T-82" style="endArrow=block;strokeColor=#000000;entryX=0.5;entryY=1;entryDx=0;entryDy=0;exitX=0.5;exitY=0;exitDx=0;exitDy=0;" edge="1" parent="1" source="HSBJBMxjEop3nC450B1T-79" target="HSBJBMxjEop3nC450B1T-81">
          <mxGeometry relative="1" as="geometry">
            <mxPoint x="1430" y="315" as="sourcePoint" />
            <mxPoint x="1430" y="280" as="targetPoint" />
          </mxGeometry>
        </mxCell>
        <mxCell id="HSBJBMxjEop3nC450B1T-83" value="&lt;div&gt;&lt;div&gt;&lt;font style=&quot;color: rgb(0, 0, 0);&quot;&gt;Утечка данных&lt;/font&gt;&lt;/div&gt;&lt;div&gt;&lt;font style=&quot;color: rgb(0, 0, 0);&quot;&gt;(&lt;span style=&quot;background-color: transparent;&quot;&gt;критический)&lt;/span&gt;&lt;/font&gt;&lt;/div&gt;&lt;/div&gt;" style="ellipse;whiteSpace=wrap;html=1;fontColor=#000000;fillColor=#FFFFFF;strokeColor=#000000;" vertex="1" parent="1">
          <mxGeometry x="1580" y="80" width="110" height="70" as="geometry" />
        </mxCell>
        <mxCell id="HSBJBMxjEop3nC450B1T-84" style="endArrow=block;strokeColor=#000000;entryX=0;entryY=0.5;entryDx=0;entryDy=0;exitX=1;exitY=0.5;exitDx=0;exitDy=0;" edge="1" parent="1" source="HSBJBMxjEop3nC450B1T-81" target="HSBJBMxjEop3nC450B1T-83">
          <mxGeometry relative="1" as="geometry">
            <mxPoint x="1480" y="200" as="sourcePoint" />
            <mxPoint x="1480" y="160" as="targetPoint" />
          </mxGeometry>
        </mxCell>
        <mxCell id="HSBJBMxjEop3nC450B1T-85" style="endArrow=block;strokeColor=#000000;entryX=0;entryY=0.5;entryDx=0;entryDy=0;exitX=1;exitY=0.5;exitDx=0;exitDy=0;" edge="1" parent="1" source="HSBJBMxjEop3nC450B1T-83" target="HSBJBMxjEop3nC450B1T-16">
          <mxGeometry relative="1" as="geometry">
            <mxPoint x="1718.75" y="110" as="sourcePoint" />
            <mxPoint x="1718.75" y="70" as="targetPoint" />
          </mxGeometry>
        </mxCell>
        <mxCell id="HSBJBMxjEop3nC450B1T-86" value="&lt;div&gt;&lt;div&gt;&lt;font style=&quot;color: rgb(0, 0, 0);&quot;&gt;Потеря данных&lt;/font&gt;&lt;/div&gt;&lt;div&gt;&lt;font style=&quot;color: rgb(0, 0, 0);&quot;&gt;(з&lt;span style=&quot;background-color: transparent;&quot;&gt;начительный&lt;/span&gt;&lt;span style=&quot;color: rgb(0, 0, 0); background-color: transparent;&quot;&gt;)&lt;/span&gt;&lt;/font&gt;&lt;/div&gt;&lt;/div&gt;" style="ellipse;whiteSpace=wrap;html=1;fontColor=#000000;fillColor=#FFFFFF;strokeColor=#000000;" vertex="1" parent="1">
          <mxGeometry x="1405" y="-20" width="120" height="70" as="geometry" />
        </mxCell>
        <mxCell id="HSBJBMxjEop3nC450B1T-87" value="Потеря документации, логов и конфигураций усложнит восстановление и сопровождение сервисов" style="whiteSpace=wrap;fillColor=#fff;fontColor=light-dark(#000000,#000000);" vertex="1" parent="1">
          <mxGeometry x="1390" y="-150" width="280" height="80" as="geometry" />
        </mxCell>
        <mxCell id="HSBJBMxjEop3nC450B1T-88" style="endArrow=block;strokeColor=#000000;entryX=0.5;entryY=1;entryDx=0;entryDy=0;exitX=1;exitY=0;exitDx=0;exitDy=0;" edge="1" parent="1" source="HSBJBMxjEop3nC450B1T-86" target="HSBJBMxjEop3nC450B1T-87">
          <mxGeometry relative="1" as="geometry">
            <mxPoint x="1464" y="-30" as="sourcePoint" />
            <mxPoint x="1464" y="-80" as="targetPoint" />
          </mxGeometry>
        </mxCell>
        <mxCell id="HSBJBMxjEop3nC450B1T-89" style="endArrow=block;strokeColor=#000000;entryX=0;entryY=1;entryDx=0;entryDy=0;exitX=0.5;exitY=0;exitDx=0;exitDy=0;" edge="1" parent="1" source="HSBJBMxjEop3nC450B1T-81" target="HSBJBMxjEop3nC450B1T-86">
          <mxGeometry relative="1" as="geometry">
            <mxPoint x="1390" y="40" as="sourcePoint" />
            <mxPoint x="1390" y="-10" as="targetPoint" />
          </mxGeometry>
        </mxCell>
        <mxCell id="HSBJBMxjEop3nC450B1T-90" value="&lt;div&gt;Искажение &lt;span style=&quot;background-color: transparent;&quot;&gt;данных&lt;/span&gt;&lt;/div&gt;&lt;div&gt;&lt;font style=&quot;color: rgb(0, 0, 0);&quot;&gt;(&lt;span style=&quot;background-color: transparent;&quot;&gt;критический)&lt;br&gt;&lt;/span&gt;&lt;/font&gt;&lt;/div&gt;" style="ellipse;whiteSpace=wrap;html=1;fontColor=#000000;fillColor=#FFFFFF;strokeColor=#000000;" vertex="1" parent="1">
          <mxGeometry x="1120" y="-20" width="135" height="70" as="geometry" />
        </mxCell>
        <mxCell id="HSBJBMxjEop3nC450B1T-91" style="endArrow=block;strokeColor=#000000;entryX=0.5;entryY=1;entryDx=0;entryDy=0;exitX=0.5;exitY=0;exitDx=0;exitDy=0;" edge="1" parent="1" source="HSBJBMxjEop3nC450B1T-81" target="HSBJBMxjEop3nC450B1T-90">
          <mxGeometry relative="1" as="geometry">
            <mxPoint x="1350" y="50" as="sourcePoint" />
            <mxPoint x="1473" y="30" as="targetPoint" />
          </mxGeometry>
        </mxCell>
        <mxCell id="HSBJBMxjEop3nC450B1T-92" value="Ошибочные схемы или скрипты приводят к сбоям деплоймента и простою сервисов." style="whiteSpace=wrap;fillColor=#fff;fontColor=light-dark(#000000,#000000);" vertex="1" parent="1">
          <mxGeometry x="1010" y="-150" width="280" height="80" as="geometry" />
        </mxCell>
        <mxCell id="HSBJBMxjEop3nC450B1T-94" style="endArrow=block;strokeColor=#000000;entryX=0.5;entryY=1;entryDx=0;entryDy=0;exitX=0.5;exitY=0;exitDx=0;exitDy=0;" edge="1" parent="1" source="HSBJBMxjEop3nC450B1T-90" target="HSBJBMxjEop3nC450B1T-92">
          <mxGeometry relative="1" as="geometry">
            <mxPoint x="1440" y="200" as="sourcePoint" />
            <mxPoint x="1462" y="140" as="targetPoint" />
          </mxGeometry>
        </mxCell>
        <mxCell id="HSBJBMxjEop3nC450B1T-95" value="&lt;div&gt;Некачественные данные&lt;/div&gt;&lt;div&gt;&lt;span style=&quot;background-color: transparent;&quot;&gt;(&lt;/span&gt;&lt;span style=&quot;background-color: transparent;&quot;&gt;критический)&lt;/span&gt;&lt;/div&gt;" style="ellipse;whiteSpace=wrap;html=1;fontColor=#000000;fillColor=#FFFFFF;strokeColor=#000000;" vertex="1" parent="1">
          <mxGeometry x="910" y="90" width="135" height="70" as="geometry" />
        </mxCell>
        <mxCell id="HSBJBMxjEop3nC450B1T-96" value="Неактуальные инструкции или баг-репорты вызывают ошибки эксплуатации и затраты." style="whiteSpace=wrap;fillColor=#fff;fontColor=light-dark(#000000,#000000);" vertex="1" parent="1">
          <mxGeometry x="590" y="85" width="280" height="80" as="geometry" />
        </mxCell>
        <mxCell id="HSBJBMxjEop3nC450B1T-97" style="endArrow=block;strokeColor=#000000;entryX=1;entryY=0.5;entryDx=0;entryDy=0;exitX=0;exitY=0.5;exitDx=0;exitDy=0;" edge="1" parent="1" source="HSBJBMxjEop3nC450B1T-81" target="HSBJBMxjEop3nC450B1T-95">
          <mxGeometry relative="1" as="geometry">
            <mxPoint x="1272" y="160" as="sourcePoint" />
            <mxPoint x="1160" y="150" as="targetPoint" />
          </mxGeometry>
        </mxCell>
        <mxCell id="HSBJBMxjEop3nC450B1T-98" style="endArrow=block;strokeColor=#000000;entryX=1;entryY=0.5;entryDx=0;entryDy=0;exitX=0;exitY=0.5;exitDx=0;exitDy=0;" edge="1" parent="1" source="HSBJBMxjEop3nC450B1T-95" target="HSBJBMxjEop3nC450B1T-96">
          <mxGeometry relative="1" as="geometry">
            <mxPoint x="1262" y="190" as="sourcePoint" />
            <mxPoint x="1150" y="180" as="targetPoint" />
          </mxGeometry>
        </mxCell>
      </root>
    </mxGraphModel>
  </diagram>
</mxfile>
